<?xml version="1.0" encoding="UTF-8" standalone="no"?>
<!-- Created with Inkscape (http://www.inkscape.org/) -->

<svg
   xmlns:dc="http://purl.org/dc/elements/1.1/"
   xmlns:cc="http://creativecommons.org/ns#"
   xmlns:rdf="http://www.w3.org/1999/02/22-rdf-syntax-ns#"
   xmlns:svg="http://www.w3.org/2000/svg"
   xmlns="http://www.w3.org/2000/svg"
   xmlns:sodipodi="http://sodipodi.sourceforge.net/DTD/sodipodi-0.dtd"
   xmlns:inkscape="http://www.inkscape.org/namespaces/inkscape"
   width="193.32693"
   height="197.94499"
   id="svg2"
   sodipodi:version="0.32"
   inkscape:version="0.91 r13725"
   sodipodi:modified="true"
   version="1.0"
   sodipodi:docname="Logo_Blue_Bus.svg">
  <defs
     id="defs4">
    <clipPath
       id="clipPath61930"
       clipPathUnits="userSpaceOnUse">
      <path
         inkscape:connector-curvature="0"
         id="path61932"
         d="m 59.528,316.063 168.661,0 0,656.221 -168.661,0 0,-656.221 z" />
    </clipPath>
  </defs>
  <sodipodi:namedview
     id="base"
     pagecolor="#ffffff"
     bordercolor="#666666"
     borderopacity="1.0"
     inkscape:pageopacity="0.0"
     inkscape:pageshadow="2"
     inkscape:zoom="0.5"
     inkscape:cx="-260"
     inkscape:cy="56"
     inkscape:document-units="px"
     inkscape:current-layer="layer1"
     showguides="true"
     inkscape:guide-bbox="true"
     inkscape:window-width="1600"
     inkscape:window-height="837"
     inkscape:window-x="-8"
     inkscape:window-y="-8"
     showgrid="false"
     inkscape:window-maximized="1"
     fit-margin-top="0"
     fit-margin-left="0"
     fit-margin-right="0"
     fit-margin-bottom="0" />
  <metadata
     id="metadata7">
    <rdf:RDF>
      <cc:Work
         rdf:about="">
        <dc:format>image/svg+xml</dc:format>
        <dc:type
           rdf:resource="http://purl.org/dc/dcmitype/StillImage" />
        <dc:title />
      </cc:Work>
    </rdf:RDF>
  </metadata>
  <g
     inkscape:label="Capa 1"
     inkscape:groupmode="layer"
     id="layer1"
     transform="translate(-237.27661,-417.60537)">
    <g
       transform="matrix(9.7222495,0,0,-9.7222495,-496.99726,8862.6517)"
       id="g61926">
      <g
         clip-path="url(#clipPath61930)"
         id="g61928">
        <g
           transform="translate(75.9151,858.4509)"
           id="g61934">
          <path
             inkscape:connector-curvature="0"
             id="path61936"
             style="fill:#ffffff;fill-opacity:1;fill-rule:nonzero;stroke:none"
             d="m 0,0 c -0.001,5.407 4.277,9.79 9.552,9.79 5.276,0 9.552,-4.383 9.553,-9.79 0,-5.406 -4.277,-9.79 -9.551,-9.79 C 4.277,-9.79 0,-5.406 0,0" />
        </g>
        <g
           transform="translate(75.9151,858.4509)"
           id="g61938">
          <path
             inkscape:connector-curvature="0"
             id="path61940"
             style="fill:#0d3f7a;fill-opacity:1;stroke:#0d3f7a;stroke-width:0.77999997;stroke-linecap:butt;stroke-linejoin:miter;stroke-miterlimit:3.86400008;stroke-dasharray:none;stroke-opacity:1"
             d="m 0,0 c -0.001,5.407 4.277,9.79 9.552,9.79 5.276,0 9.552,-4.383 9.553,-9.79 0,-5.406 -4.277,-9.79 -9.551,-9.79 C 4.277,-9.79 0,-5.406 0,0 Z" />
        </g>
        <g
           transform="translate(81.5031,863.18977)"
           id="g61942">
          <path
             inkscape:connector-curvature="0"
             id="path61944"
             style="fill:#ffffff;fill-opacity:1;fill-rule:evenodd;stroke:none"
             d="M 0,0 7.907,0 C 8.102,0 8.26,-0.161 8.26,-0.361 l 0.414,-4.624 c 0,-0.2 -0.157,-0.362 -0.353,-0.362 l -8.734,0 c -0.194,0 -0.352,0.162 -0.352,0.362 l 0.412,4.624 C -0.353,-0.161 -0.193,0 0,0 m 0.363,1.377 7.235,0 c 0.214,0 0.388,-0.178 0.388,-0.396 l 0,-0.041 C 7.986,0.722 7.812,0.543 7.598,0.543 l -7.235,0 c -0.214,0 -0.386,0.178 -0.386,0.397 l 0,0.041 c 0,0.218 0.172,0.396 0.386,0.396 m -1.14,-9.112 c 0,0.48 0.38,0.87 0.848,0.87 0.468,0 0.849,-0.39 0.849,-0.87 0,-0.481 -0.381,-0.869 -0.849,-0.869 -0.468,0 -0.848,0.388 -0.848,0.869 m 7.877,0 c 0,0.48 0.379,0.87 0.848,0.87 0.47,0 0.849,-0.39 0.849,-0.87 0,-0.481 -0.379,-0.87 -0.849,-0.87 -0.469,0 -0.848,0.389 -0.848,0.87 m -6.448,-2.322 0,-0.78 c 0,-0.492 -0.375,-0.89 -0.836,-0.89 -0.461,0 -0.836,0.398 -0.836,0.89 l 0,0.781 -0.259,0 c -0.259,0 -0.47,0.215 -0.47,0.48 l 0,3.232 0.019,0.682 0.738,6.681 c 0.077,0.587 0.568,1.039 1.162,1.039 2.531,0.255 5.053,0.255 7.562,0 0.595,0 1.086,-0.452 1.167,-1.037 l 0.774,-6.675 0.005,-0.69 0,-3.231 c 0,-0.266 -0.209,-0.481 -0.47,-0.481 l -0.233,0 0,-0.781 c 0,-0.492 -0.374,-0.89 -0.836,-0.89 -0.462,0 -0.836,0.398 -0.836,0.89 l 0,0.78 -6.651,0 z" />
        </g>
      </g>
    </g>
  </g>
</svg>
